<?xml version="1.0" encoding="utf-8"?>
<!-- Generator: Adobe Illustrator 24.0.3, SVG Export Plug-In . SVG Version: 6.00 Build 0)  -->
<svg version="1.1" id="Layer_1" xmlns="http://www.w3.org/2000/svg" xmlns:xlink="http://www.w3.org/1999/xlink" x="0px" y="0px"
	 viewBox="0 0 419.6 441.17" style="enable-background:new 0 0 419.6 441.17;" xml:space="preserve">
<style type="text/css">
	.st0{fill:#FFFFFF;}
</style>
<path class="st0" d="M300.09,352.15c7.08,5.99,16.1,6.57,20.94,6.57c3.68,0,9.46-0.65,13.5-2.74c0.79-0.43,0.87-0.51,0.87-3.32
	v-6.86c0-2.6,0-4.4,0.07-6.35c0.14-2.17,0.65-3.11,2.38-3.39c0.72-0.14,1.16-0.14,1.59-0.14c0.22,0,0.51-0.29,0.51-0.51
	c0-0.43-0.29-0.5-1.01-0.5c-1.95,0-5.92,0.14-6.21,0.14c-0.36,0-4.62-0.14-7.51-0.14c-0.72,0-1.01,0.07-1.01,0.5
	c0,0.22,0.29,0.51,0.5,0.51c0.58,0,1.66,0.07,2.17,0.14c2.6,0.5,2.74,1.23,2.74,6.21v10.61c0,1.16-0.51,1.44-1.3,1.88
	c-1.66,0.94-4.62,1.16-6.86,1.16c-5.85,0-11.19-1.73-16.25-6.43c-2.24-2.09-6.71-8.3-6.71-16.97c0-7.15,2.6-12.63,6.28-15.45
	c4.84-3.68,9.46-3.97,13.29-3.97c8.23,0,13.07,2.45,14.66,4.76c1.01,1.44,1.37,3.25,1.44,4.04c0,0.58,0.07,0.94,0.43,0.94
	c0.43,0,0.72-0.29,0.72-1.3c0-6.14,0.36-7.8,0.36-8.66c0-0.29-0.14-0.58-0.79-0.58c-1.59,0-3.83-0.36-5.13-0.65
	c-1.23-0.29-5.7-1.01-9.75-1.01c-4.84,0-11.19,0.43-16.89,3.9c-5.63,3.39-10.61,10.32-10.61,20.14
	C292.51,342.33,296.19,348.9,300.09,352.15z"/>
<path class="st0" d="M156.75,375.9c0.22,0,0.36-0.07,0.5-0.14c0.72-0.36,1.88-1.16,2.82-1.8c5.85-4.04,9.03-7.44,10.54-11.05
	c2.17-5.13,2.17-9.6,2.17-21.3v-17.33c0-11.26,0-13.29,0.14-15.6c0.14-2.53,0.72-3.75,2.67-4.11c0.87-0.14,1.3-0.22,1.81-0.22
	c0.29,0,0.58-0.14,0.58-0.43c0-0.43-0.36-0.58-1.16-0.58c-2.17,0-6.72,0.22-7.08,0.22c-0.36,0-4.91-0.22-8.16-0.22
	c-0.79,0-1.15,0.14-1.15,0.58c0,0.29,0.29,0.43,0.58,0.43c0.65,0,1.88,0.07,2.45,0.22c2.38,0.51,2.96,1.66,3.1,4.11
	c0.14,2.31,0.14,4.33,0.14,15.6v20.87c0,18.63-2.24,22.45-6.93,27.22c-0.65,0.65-1.66,1.52-2.53,2.02
	c-0.65,0.43-1.01,0.65-1.01,1.08C156.24,375.76,156.53,375.9,156.75,375.9z"/>
<path class="st0" d="M184.62,312.51c0.58,0,1.66,0.07,2.17,0.14c2.09,0.29,2.45,1.44,2.6,3.39c0.14,1.95,0.14,3.68,0.14,13.21v9.02
	c0,8.95,2.45,13.21,5.56,16.1c4.48,4.19,11.12,4.33,13.21,4.33c3.76,0,8.67-0.5,13.29-4.48c5.05-4.33,5.92-11.77,5.92-18.41v-6.57
	c0-9.53-0.07-11.26,0.07-13.21c0.14-2.02,0.5-3.03,2.24-3.39c0.79-0.14,1.16-0.14,1.59-0.14c0.29,0,0.51-0.29,0.51-0.5
	c0-0.36-0.29-0.51-1.01-0.51c-1.88,0-4.91,0.14-5.34,0.14c-0.36,0-4.04-0.14-6.86-0.14c-0.72,0-1.01,0.14-1.01,0.51
	c0,0.22,0.22,0.5,0.51,0.5c0.58,0,1.66,0.07,2.17,0.14c2.09,0.29,2.45,1.44,2.53,3.39c0.07,1.95,0.14,3.68,0.14,13.21v7.73
	c0,6.28-0.65,11.34-3.61,14.87c-2.17,2.6-5.92,4.33-9.82,4.33c-3.61,0-6.35-0.5-9.46-3.32c-2.74-2.45-4.69-6.14-4.69-15.02v-8.59
	c0-9.53,0-11.26,0.14-13.21c0.14-2.02,0.5-3.1,2.17-3.39c0.79-0.14,1.15-0.14,1.59-0.14c0.29,0,0.58-0.29,0.58-0.5
	c0-0.36-0.36-0.51-1.08-0.51c-1.88,0-5.85,0.14-6.43,0.14c-0.58,0-4.4-0.14-7.29-0.14c-0.72,0-1.01,0.14-1.01,0.51
	C184.12,312.22,184.41,312.51,184.62,312.51z"/>
<path class="st0" d="M111.08,393.09c-17.54,0-25.2,14.08-25.2,23.97c0,11.05,7.44,24.11,24.84,24.11
	c15.31,0,25.49-11.34,25.49-25.05C136.21,401.82,125.38,393.09,111.08,393.09z M112.53,438.64c-11.48,0-20.07-8.95-20.07-23.25
	c0-13.36,7.65-20,18.27-20c10.04,0,18.99,7.73,18.99,22.45C129.71,435.61,118.23,438.64,112.53,438.64z"/>
<path class="st0" d="M142.43,394.96c0.58,0,1.66,0.07,2.17,0.14c2.09,0.29,2.45,1.3,2.6,3.39c0.14,1.95,0.14,3.68,0.14,13.21v10.83
	c0,5.92,0,10.76-0.36,13.29c-0.29,1.8-0.43,2.96-1.66,3.25c-0.58,0.14-1.37,0.29-1.95,0.29c-0.36,0-0.5,0.29-0.5,0.5
	c0,0.36,0.36,0.51,1.01,0.51c1.01,0,2.53-0.07,3.83-0.14c1.3,0,2.45-0.07,2.6-0.07c0.29,0,2.45,0.14,5.2,0.36
	c2.74,0.14,6.14,0.36,8.88,0.36c10.83,0,16.54-4.26,19.28-7.08c3.54-3.61,6.86-9.53,6.86-17.26c0-7.29-3.03-12.42-6.21-15.59
	c-7.51-7.58-19.13-7-25.49-7c-3.75,0-7.8,0.14-8.52,0.14c-0.36,0-4.48-0.14-7.36-0.14c-0.72,0-1.01,0.14-1.01,0.51
	C141.92,394.67,142.21,394.96,142.43,394.96z M153.11,397.85c0-0.72,0.22-1.01,0.79-1.23c0.58-0.22,2.6-0.43,3.83-0.43
	c7.58,0,14.59,0.79,20.58,6.86c2.6,2.6,5.99,7.58,5.99,15.38c0,5.63-1.66,11.48-4.98,14.58c-3.83,3.61-9.02,5.56-14.87,5.56
	c-7.51,0-9.75-1.3-10.54-2.45c-0.5-0.65-0.65-2.89-0.72-4.4c-0.07-1.16-0.07-6.86-0.07-13.36V397.85z"/>
<path class="st0" d="M347.46,312.51c0.58,0,1.66,0.07,2.17,0.14c2.09,0.29,2.45,1.3,2.6,3.39c0.14,1.95,0.14,3.68,0.14,13.21v10.83
	c0,5.92,0,10.76-0.36,13.29c-0.29,1.8-0.43,3.03-1.66,3.25c-0.58,0.07-1.37,0.29-1.95,0.29c-0.36,0-0.5,0.29-0.5,0.5
	c0,0.36,0.36,0.51,1.01,0.51c1.01,0,2.45-0.07,3.68-0.14c1.37-0.07,2.6-0.07,2.74-0.07c0.94,0,2.6,0,5.27,0.14
	c2.6,0.07,6.28,0.22,11.05,0.22c2.45,0,3.1,0,3.54-1.59c0.36-1.3,0.87-5.49,0.87-5.92c0-0.43-0.07-0.94-0.43-0.94
	c-0.36,0-0.51,0.22-0.65,0.94c-0.36,2.45-1.23,3.54-2.89,4.26c-1.66,0.65-4.69,0.65-6.36,0.65c-6.28,0-7.44-0.79-7.58-4.91
	c-0.07-1.23,0-8.38,0-10.47v-5.13c0-0.22,0.07-0.43,0.43-0.43c1.08,0,7.87,0.07,9.6,0.29c2.45,0.29,3.03,1.01,3.25,1.88
	c0.29,0.79,0.29,1.44,0.29,2.02c0,0.36,0.14,0.58,0.43,0.58c0.43,0,0.58-0.65,0.58-1.16c0-0.43,0.14-2.74,0.29-3.97
	c0.14-2.02,0.5-3.03,0.5-3.39c0-0.36-0.14-0.5-0.36-0.5c-0.22,0-0.51,0.36-0.94,0.79c-0.65,0.65-1.59,0.72-3.11,0.87
	c-1.44,0.14-9.82,0.14-10.61,0.14c-0.36,0-0.36-0.22-0.36-0.65v-16.68c0-0.43,0.07-0.65,0.36-0.65c0.72,0,8.09,0.07,9.17,0.22
	c3.47,0.43,4.12,0.87,4.55,1.88c0.29,0.72,0.36,1.73,0.36,2.17c0,0.51,0.14,0.79,0.5,0.79c0.29,0,0.5-0.36,0.58-0.65
	c0.14-0.72,0.29-3.47,0.36-4.04c0.14-1.73,0.51-2.45,0.51-2.89c0-0.29-0.07-0.58-0.29-0.58c-0.29,0-0.58,0.22-0.87,0.29
	c-0.5,0.07-1.66,0.29-2.89,0.36c-1.44,0.07-14.73,0-15.16,0c-0.36,0-4.48-0.14-7.36-0.14c-0.72,0-1.01,0.14-1.01,0.51
	C346.95,312.22,347.24,312.51,347.46,312.51z"/>
<path class="st0" d="M50.77,312.51c0.58,0,1.66,0.07,2.17,0.14c2.09,0.29,2.45,1.3,2.6,3.39c0.14,1.95,0.14,3.68,0.14,13.21v10.83
	c0,5.92,0,10.76-0.36,13.29c-0.29,1.8-0.43,2.96-1.66,3.25c-0.58,0.14-1.37,0.29-1.95,0.29c-0.36,0-0.5,0.29-0.5,0.5
	c0,0.36,0.36,0.51,1.01,0.51c1.95,0,5.99-0.22,6.35-0.22c0.29,0,4.33,0.22,7.87,0.22c0.72,0,1.01-0.22,1.01-0.51
	c0-0.22-0.14-0.5-0.5-0.5c-0.58,0-1.95-0.14-2.89-0.29c-1.88-0.29-2.09-1.44-2.31-3.25c-0.29-2.53-0.29-7.22-0.29-13.14v-6.14
	c0-0.29,0.14-0.36,0.36-0.36h26.5c0.22,0,0.36,0.07,0.36,0.36v6.14c0,5.92,0,10.54-0.29,13.07c-0.22,1.8-0.43,3.03-1.73,3.32
	c-0.58,0.14-1.3,0.29-1.88,0.29c-0.36,0-0.51,0.29-0.51,0.5c0,0.36,0.29,0.51,1.01,0.51c1.88,0,5.99-0.22,6.28-0.22
	c0.36,0,4.4,0.22,7.87,0.22c0.72,0,1.08-0.22,1.08-0.51c0-0.22-0.14-0.5-0.58-0.5c-0.5,0-1.95-0.14-2.82-0.29
	c-1.95-0.29-2.09-1.44-2.31-3.25c-0.29-2.53-0.36-7.36-0.36-13.29v-10.83c0-9.53,0-11.26,0.14-13.21c0.14-2.17,0.51-3.03,2.17-3.39
	c0.8-0.14,1.16-0.14,1.59-0.14c0.29,0,0.58-0.29,0.58-0.5c0-0.36-0.36-0.51-1.08-0.51c-1.88,0-5.92,0.14-6.28,0.14
	c-0.29,0-4.41-0.14-7.22-0.14c-0.72,0-1.01,0.14-1.01,0.51c0,0.22,0.22,0.5,0.5,0.5c0.58,0,1.66,0.07,2.17,0.14
	c2.09,0.29,2.38,1.3,2.53,3.39c0.07,1.95,0.14,3.83,0.14,13.36v1.3c0,0.36-0.14,0.36-0.36,0.36h-26.5c-0.22,0-0.36,0-0.36-0.36v-1.3
	c0-9.53,0-11.41,0.07-13.36c0.14-2.17,0.5-3.03,2.24-3.39c0.72-0.14,1.16-0.14,1.59-0.14c0.22,0,0.51-0.29,0.51-0.5
	c0-0.36-0.29-0.51-1.01-0.51c-1.95,0-5.99,0.14-6.28,0.14c-0.36,0-4.4-0.14-7.29-0.14c-0.72,0-1.01,0.14-1.01,0.51
	C50.26,312.22,50.55,312.51,50.77,312.51z"/>
<path class="st0" d="M108.32,312.51c0.58,0,1.66,0.07,2.17,0.14c2.09,0.29,2.45,1.3,2.6,3.39c0.14,1.95,0.14,3.68,0.14,13.21v10.83
	c0,5.92,0,10.76-0.36,13.29c-0.29,1.8-0.43,3.03-1.66,3.25c-0.58,0.07-1.37,0.29-1.95,0.29c-0.36,0-0.5,0.29-0.5,0.5
	c0,0.36,0.36,0.51,1.01,0.51c1.01,0,2.45-0.07,3.68-0.14c1.37-0.07,2.6-0.07,2.74-0.07c0.94,0,2.6,0,5.27,0.14
	c2.6,0.07,6.28,0.22,11.05,0.22c2.45,0,3.1,0,3.54-1.59c0.36-1.3,0.87-5.49,0.87-5.92c0-0.43-0.07-0.94-0.43-0.94
	c-0.36,0-0.51,0.22-0.65,0.94c-0.36,2.45-1.23,3.54-2.89,4.26c-1.66,0.65-4.69,0.65-6.36,0.65c-6.28,0-7.44-0.79-7.58-4.91
	c-0.07-1.23,0-8.38,0-10.47v-5.13c0-0.22,0.07-0.43,0.43-0.43c1.08,0,7.87,0.07,9.6,0.29c2.45,0.29,3.03,1.01,3.25,1.88
	c0.29,0.79,0.29,1.44,0.29,2.02c0,0.36,0.14,0.58,0.43,0.58c0.43,0,0.58-0.65,0.58-1.16c0-0.43,0.14-2.74,0.29-3.97
	c0.14-2.02,0.5-3.03,0.5-3.39c0-0.36-0.14-0.5-0.36-0.5c-0.22,0-0.51,0.36-0.94,0.79c-0.65,0.65-1.59,0.72-3.11,0.87
	c-1.44,0.14-9.82,0.14-10.61,0.14c-0.36,0-0.36-0.22-0.36-0.65v-16.68c0-0.43,0.07-0.65,0.36-0.65c0.72,0,8.09,0.07,9.17,0.22
	c3.47,0.43,4.12,0.87,4.55,1.88c0.29,0.72,0.36,1.73,0.36,2.17c0,0.51,0.14,0.79,0.5,0.79c0.29,0,0.5-0.36,0.58-0.65
	c0.14-0.72,0.29-3.47,0.36-4.04c0.14-1.73,0.51-2.45,0.51-2.89c0-0.29-0.07-0.58-0.29-0.58c-0.29,0-0.58,0.22-0.87,0.29
	c-0.5,0.07-1.66,0.29-2.89,0.36c-1.44,0.07-14.73,0-15.16,0c-0.36,0-4.48-0.14-7.36-0.14c-0.72,0-1.01,0.14-1.01,0.51
	C107.81,312.22,108.1,312.51,108.32,312.51z"/>
<path class="st0" d="M50.35,386.81c0.65,0,1.88,0.07,2.45,0.22c2.38,0.51,2.96,1.66,3.1,4.11c0.14,2.31,0.14,4.33,0.14,15.6v12.71
	c0,6.93,0,12.64-0.36,15.67c-0.29,2.09-0.65,3.68-2.09,3.97c-0.65,0.14-1.52,0.29-2.17,0.29c-0.43,0-0.58,0.22-0.58,0.43
	c0,0.43,0.36,0.58,1.15,0.58c1.08,0,2.67-0.07,4.12-0.14c1.44,0,2.67-0.07,2.96-0.07c2.09,0,4.33,0.07,7.36,0.22
	c3.03,0.07,6.79,0.22,11.99,0.22c3.83,0,4.04-0.29,4.55-1.95c0.58-2.09,1.08-6.43,1.08-7.22c0-0.79-0.07-1.08-0.43-1.08
	c-0.43,0-0.58,0.36-0.65,0.94c-0.22,1.37-0.94,3.18-1.88,4.33c-1.73,2.09-4.91,2.17-8.74,2.17c-5.63,0-7.51-0.5-8.66-1.66
	c-1.3-1.3-1.59-5.92-1.59-16.53v-12.85c0-11.26,0-13.29,0.14-15.6c0.14-2.53,0.72-3.75,2.82-4.11c0.87-0.14,1.88-0.22,2.38-0.22
	c0.29,0,0.58-0.14,0.58-0.43c0-0.43-0.36-0.58-1.15-0.58c-2.17,0-7.44,0.22-7.8,0.22s-4.91-0.22-8.16-0.22
	c-0.79,0-1.15,0.14-1.15,0.58C49.78,386.66,50.07,386.81,50.35,386.81z"/>
<path class="st0" d="M32.27,357.93c0.79,0,1.16-0.22,1.16-0.58c0-0.22-0.14-0.43-0.58-0.43c-0.65,0-2.24-0.14-3.25-0.29
	c-2.17-0.29-2.6-1.88-2.82-3.97c-0.36-3.03-0.36-8.74-0.36-15.67v-30.54l9.1,0.14c6.93,0.14,8.67,1.81,8.88,3.97l0.07,0.79
	c0.07,1.01,0.22,1.23,0.58,1.23c0.29,0,0.51-0.29,0.51-0.94c0-0.79,0.22-5.78,0.22-7.94c0-0.43,0-0.87-0.36-0.87
	c-0.29,0-0.94,0.22-2.02,0.36c-1.15,0.22-2.82,0.36-5.13,0.36H11.19c-0.87,0-3.61-0.14-5.7-0.36c-1.95-0.14-2.67-0.87-3.18-0.87
	c-0.29,0-0.58,0.94-0.72,1.37C1.44,304.28,0,310.49,0,311.21c0,0.43,0.14,0.65,0.36,0.65c0.29,0,0.5-0.14,0.72-0.72
	c0.22-0.5,0.43-1.01,1.23-2.24c1.15-1.73,2.89-2.24,7.36-2.31l10.68-0.14v30.54c0,6.93,0,12.63-0.36,15.67
	c-0.29,2.09-0.65,3.68-2.09,3.97c-0.65,0.14-1.52,0.29-2.17,0.29c-0.43,0-0.58,0.22-0.58,0.43c0,0.43,0.36,0.58,1.16,0.58
	c2.17,0,6.71-0.22,7.08-0.22C23.75,357.71,28.3,357.93,32.27,357.93z"/>
<path class="st0" d="M324.47,393.95c-2.6,0-4.69,0.14-5.41,0.14c-0.72,0-3.76-0.14-6.64-0.14c-0.72,0-1.23,0.07-1.23,0.43
	c0,0.22,0.07,0.58,0.51,0.58c0.5,0,1.95,0.07,3.1,0.29c1.95,0.36,2.31,1.73,2.38,5.7l0.65,30.76c-1.95-2.02-8.74-9.31-15.02-15.81
	c-9.82-10.11-19.06-19.93-20.07-20.94c-0.65-0.65-1.73-1.88-2.45-1.88c-0.5,0-0.87,0.65-0.87,3.1v35.16c0,5.56-0.22,7.22-1.81,7.65
	c-0.94,0.29-2.09,0.36-2.6,0.36c-0.29,0-0.51,0.22-0.51,0.5c0,0.43,0.36,0.51,1.01,0.51c2.89,0,5.56-0.22,6.14-0.22
	c0.58,0,3.1,0.22,6.71,0.22c0.72,0,1.16-0.14,1.16-0.51c0-0.29-0.22-0.5-0.5-0.5c-0.58,0-2.02-0.07-3.18-0.36
	c-1.73-0.43-2.31-1.95-2.45-7l-0.72-28.95c1.95,2.17,9.1,9.68,16.46,17.4c6.72,7,15.88,16.03,16.54,16.61
	c3.54,3.25,4.19,3.75,4.84,3.75c0.43,0,0.5-0.36,0.5-4.4l0.14-35.96c0-3.68,0.14-4.91,2.24-5.34c0.72-0.14,1.23-0.14,1.52-0.14
	c0.43,0,0.72-0.36,0.72-0.58C325.62,394.03,325.11,393.95,324.47,393.95z"/>
<path class="st0" d="M268,439.87c0-0.22-0.14-0.5-0.5-0.5c-0.58,0-1.95-0.14-2.89-0.29c-1.88-0.29-2.09-1.44-2.31-3.25
	c-0.29-2.53-0.29-7.36-0.29-13.29v-10.83c0-9.53,0-11.26,0.07-13.21c0.14-2.17,0.5-3.03,2.24-3.39c0.72-0.14,1.16-0.14,1.59-0.14
	c0.22,0,0.51-0.29,0.51-0.5c0-0.36-0.29-0.51-1.01-0.51c-1.95,0-6.06,0.14-6.35,0.14c-0.36,0-4.33-0.14-6.43-0.14
	c-0.72,0-1.01,0.14-1.01,0.51c0,0.22,0.22,0.5,0.5,0.5c0.43,0,1.23,0.07,1.95,0.22c1.37,0.29,1.88,1.23,2.02,3.32
	c0.14,1.95,0.14,3.68,0.14,13.21v10.83c0,5.92-0.07,10.76-0.36,13.29c-0.22,1.8-0.43,2.96-1.66,3.25c-0.58,0.14-1.37,0.29-1.95,0.29
	c-0.36,0-0.5,0.29-0.5,0.5c0,0.36,0.36,0.51,1.01,0.51c1.95,0,5.92-0.22,6.28-0.22c0.29,0,4.41,0.22,7.94,0.22
	C267.71,440.38,268,440.16,268,439.87z"/>
<path class="st0" d="M409.2,331.29l-1.81-1.23c-6.28-4.26-8.23-6.5-8.23-10.4c0-4.33,3.83-6.64,8.45-6.64c5.7,0,7.8,2.31,8.23,3.03
	c0.36,0.65,0.87,2.31,0.94,3.03c0.07,0.51,0.14,0.79,0.58,0.79c0.43,0,0.5-0.43,0.5-1.37c0-4.19,0.29-6.21,0.29-6.5
	c0-0.36-0.14-0.43-0.65-0.43c-0.5,0-1.01,0-2.24-0.29c-1.52-0.36-4.04-0.72-6.57-0.72c-8.37,0-14.08,4.33-14.08,11.55
	c0,4.26,2.24,8.01,9.1,13.14l2.89,2.17c5.63,4.19,8.01,6.28,8.01,10.68c0,4.62-3.25,8.16-9.53,8.16c-4.26,0-9.03-1.59-10.04-6.07
	c-0.22-0.87-0.22-1.73-0.22-2.24c0-0.5-0.22-0.72-0.58-0.72c-0.36,0-0.51,0.36-0.51,1.01c-0.07,1.01-0.36,3.47-0.36,6.5
	c0,1.66,0.07,1.88,0.94,2.31c2.6,1.23,6.28,1.66,9.24,1.66c3.46,0,7.44-0.43,10.11-2.17c4.55-2.96,5.92-6.86,5.92-10.47
	C419.6,340.82,416.92,336.56,409.2,331.29z"/>
<path class="st0" d="M388.55,299.81c-1.15-0.43-3.9-1.3-5.05-1.3c-0.29,0-0.65,0.22-0.65,0.43c0,0.36,0.07,0.58,0.65,1.23
	c0.51,0.58,1.45,2.45,1.45,4.69c0,4.11-1.3,8.01-2.38,10.32c-0.22,0.5-0.29,0.72-0.29,0.94c0,0.22,0.22,0.36,0.36,0.36
	c0.36,0,0.65-0.14,0.94-0.58c2.53-3.03,6.21-9.1,6.21-14.22C389.77,300.6,389.41,300.24,388.55,299.81z"/>
<path class="st0" d="M376.89,417.35c-1.95,0-5.92,0.14-6.21,0.14c-0.36,0-4.62-0.14-7.51-0.14c-0.72,0-1.01,0.07-1.01,0.5
	c0,0.22,0.29,0.51,0.5,0.51c0.58,0,1.66,0.07,2.17,0.14c2.6,0.5,2.74,1.23,2.74,6.21v10.61c0,1.16-0.51,1.44-1.3,1.88
	c-1.66,0.94-4.62,1.16-6.86,1.16c-5.85,0-11.19-1.73-16.25-6.43c-2.24-2.09-6.71-8.3-6.71-16.97c0-7.15,2.6-12.64,6.28-15.45
	c4.84-3.68,9.46-3.97,13.29-3.97c8.23,0,13.07,2.45,14.66,4.77c1.01,1.44,1.37,3.25,1.44,4.04c0,0.58,0.07,0.94,0.43,0.94
	c0.43,0,0.72-0.29,0.72-1.3c0-6.14,0.36-7.8,0.36-8.66c0-0.29-0.14-0.58-0.79-0.58c-1.59,0-3.83-0.36-5.13-0.65
	c-1.23-0.29-5.7-1.01-9.75-1.01c-4.84,0-11.19,0.43-16.89,3.9c-5.63,3.39-10.61,10.32-10.61,20.14c0,7.65,3.68,14.22,7.58,17.47
	c7.08,5.99,16.1,6.57,20.94,6.57c3.68,0,9.46-0.65,13.5-2.74c0.79-0.43,0.87-0.5,0.87-3.32v-6.86c0-2.6,0-4.4,0.07-6.35
	c0.14-2.17,0.65-3.1,2.38-3.39c0.72-0.14,1.16-0.14,1.59-0.14c0.22,0,0.51-0.29,0.51-0.51C377.9,417.42,377.61,417.35,376.89,417.35
	z"/>
<path class="st0" d="M251.63,358.07c2.74,0.14,6.14,0.36,8.88,0.36c10.83,0,16.54-4.26,19.28-7.07c3.54-3.61,6.86-9.53,6.86-17.26
	c0-7.29-3.03-12.42-6.21-15.59c-7.51-7.58-19.13-7-25.49-7c-3.75,0-7.8,0.14-8.52,0.14c-0.36,0-4.48-0.14-7.36-0.14
	c-0.72,0-1.01,0.14-1.01,0.51c0,0.22,0.29,0.5,0.51,0.5c0.58,0,1.66,0.07,2.17,0.14c2.09,0.29,2.45,1.3,2.6,3.39
	c0.14,1.95,0.14,3.68,0.14,13.21v10.83c0,5.92,0,10.76-0.36,13.29c-0.29,1.8-0.43,2.96-1.66,3.25c-0.58,0.14-1.37,0.29-1.95,0.29
	c-0.36,0-0.5,0.29-0.5,0.5c0,0.36,0.36,0.51,1.01,0.51c1.01,0,2.53-0.07,3.83-0.14c1.3,0,2.45-0.07,2.6-0.07
	C246.72,357.71,248.89,357.85,251.63,358.07z M249.25,315.4c0-0.72,0.22-1.01,0.79-1.23c0.58-0.22,2.6-0.43,3.83-0.43
	c7.58,0,14.59,0.79,20.58,6.86c2.6,2.6,5.99,7.58,5.99,15.38c0,5.63-1.66,11.48-4.98,14.58c-3.83,3.61-9.02,5.56-14.87,5.56
	c-7.51,0-9.75-1.3-10.54-2.45c-0.5-0.65-0.65-2.89-0.72-4.41c-0.07-1.16-0.07-6.86-0.07-13.36V315.4z"/>
<path class="st0" d="M242.79,417.35c-1.95,0-5.92,0.14-6.21,0.14c-0.36,0-4.62-0.14-7.51-0.14c-0.72,0-1.01,0.07-1.01,0.5
	c0,0.22,0.29,0.51,0.5,0.51c0.58,0,1.66,0.07,2.17,0.14c2.6,0.5,2.74,1.23,2.74,6.21v10.61c0,1.16-0.51,1.44-1.3,1.88
	c-1.66,0.94-4.62,1.16-6.86,1.16c-5.85,0-11.19-1.73-16.25-6.43c-2.24-2.09-6.71-8.3-6.71-16.97c0-7.15,2.6-12.64,6.28-15.45
	c4.84-3.68,9.46-3.97,13.29-3.97c8.23,0,13.07,2.45,14.66,4.77c1.01,1.44,1.37,3.25,1.44,4.04c0,0.58,0.07,0.94,0.43,0.94
	c0.43,0,0.72-0.29,0.72-1.3c0-6.14,0.36-7.8,0.36-8.66c0-0.29-0.14-0.58-0.79-0.58c-1.59,0-3.83-0.36-5.13-0.65
	c-1.23-0.29-5.7-1.01-9.75-1.01c-4.84,0-11.19,0.43-16.89,3.9c-5.63,3.39-10.61,10.32-10.61,20.14c0,7.65,3.68,14.22,7.58,17.47
	c7.08,5.99,16.1,6.57,20.94,6.57c3.68,0,9.46-0.65,13.5-2.74c0.79-0.43,0.87-0.5,0.87-3.32v-6.86c0-2.6,0-4.4,0.07-6.35
	c0.14-2.17,0.65-3.1,2.38-3.39c0.72-0.14,1.16-0.14,1.59-0.14c0.22,0,0.51-0.29,0.51-0.51C243.8,417.42,243.52,417.35,242.79,417.35
	z"/>
<path class="st0" d="M129.69,192.72c-1.13-1.06,0.02-2.54,0.32-3.74c1.55-0.14,1.9,1,2.76,1.6
	C132.28,191.79,131.27,192.52,129.69,192.72z M179.79,266.5c-1.5-2.71-4.77-0.81-6.39,0.53c0.05,0.49,0.06,1.01,0.08,1.53
	c1.28,0.13,2.56,0.26,3.85,0.38C177.67,267.68,179.51,267.83,179.79,266.5z M305.58,249.93c0.79,0.91,0.93,2.35,2.23,1.6
	c2.51-0.15,2.21-2.97,2.37-5.35c2.14-1.02,5.36-2.53,3.98-5.34c-3.34-1.5-7.54,0.18-11.23,0c0.79,2.28,0.1,5.56,0.95,7.49
	C303.96,248.49,305.3,249.61,305.58,249.93z M302.11,168.27c0.61,0.47,1.25,0.97,1.85,1.47c-0.05-0.65-0.14-1.29-0.31-1.92
	C303.12,167.56,302.58,167.79,302.11,168.27z M304.41,180.47c0.73,1.99,5.34,3.74,5.34,3.74s2.67-1.9,2.91,0
	c0.19,1.44,0.09,3.18,0.03,3.93l-5.35,8.99c0,0-3.09,6.34,1.48,9.71c0.18-1.14,0.35-2.28,0.53-3.43c0.04-0.23,0.03-0.44,0.06-0.66
	c0.04-0.27,0.09-0.54,0.13-0.81c-0.03,0.16-0.07,0.31-0.1,0.47c0.21-2.92,1.94-4.86,1.61-7.58c0.45-0.07,0.81-0.34,1.1-0.78
	c0.03,0.1,0.06,0.21,0.08,0.3c0.03-0.2,0.06-0.4,0.1-0.6c0.68-1.29,0.9-3.45,1.03-5.21h0.78c0,0,0.22-1.23,1.44,0s1.7,4.3,1.7,4.3
	s-1.46,2.03-1.21,4.22c0.24,2.19,3.89,6.53,3.89,6.53l0.97,6.41c0,0-0.24-0.7,0,1.07c0.24,1.77,1.21,1.53,2.67,3.72
	c1.46,2.19,3.89,6.31,3.89,7.29c0,0.97,6.31,2.41,6.31,2.41s6.07,6.85,6.31,7.08c0.24,0.23,0.49,2.26,1.21,3.8
	c0.73,1.53,2.43,3.23,2.43,3.23s2.43,6.26,2.43,7.62c0,0.75,0,3.53,0,5.87c0,0,11.21-4.04,16.2-8.7c-0.35-0.71-0.66-1.34-0.98-2.04
	c-0.74-1.66-1.57-3.16-2.36-4.61c-0.03-0.05-0.05-0.09-0.07-0.13l-0.89,0.43c-0.95-1.73-1.84-3.37-2.46-5.03
	c-0.8-2.18-0.96-2.37-1.82-3.75c-0.53-0.86-0.76-1.82-1.22-2.68c-0.4-0.74-1.6-1.88-1.73-2.15c-0.53-1.13-0.21-2.26-0.72-3.22
	c-0.53-1-1.77-1.73-2.3-2.68c-0.78-1.41-0.71-2.42-1.28-3.75c0,0-3.54-4.43-5.03-5.84c-1.49-1.41-0.22-3.92-0.36-6.4
	c-0.14-2.48,0.09-2.24,0.09-2.24l-2.6-2.46l-2.02-3.97l-3.24-2.76c0,0,0,0-0.14-2.55c-0.14-2.54-1.48-1.4-1.48-1.4l-2.8-1.9
	l-1.55-3.74h-1.79l-9.78-7.5c-3.53-0.13-6.77,0.02-9.62,0.54C306.25,173.5,303.68,178.48,304.41,180.47z M240.63,3.33
	c1.28,0.39,2.35,1.92,3.71,1.7c2.2-0.36,4.23-0.16,6.4,0.07c2.41,0.26,4.92,3.03,7.26,3.86c1.57,0.56,5.01,0.65,5.86,2.4
	c0.04,0.08,1.23,3.55,0.84,3.52c2.39,0.24,7.21,5.81,8.76,3.81c1.47-1.89,2.89,9.12,2.91,9.49c0.37,6.2,4.71,9.61,8.11,13.77
	c0.08,0.22,0.21,0.4,0.42,0.52c0.26,0.33,0.5,0.65,0.75,0.99c-0.2,1.1-0.28,2.1,0.13,2.7c0.22,0.01,0.39-0.05,0.55-0.12
	c-0.21,1.7-0.33,3.34-0.28,3.81c0.15,1.34,0.29,2.67,0.44,4.01c-2.29,1.01-4.35,2.36-5.02,5.65c1.69,0.46,2.91-0.81,4.01-1.3
	c0.48-0.21,0.96-0.39,1.43-0.57c0.14,1.3,0.29,2.6,0.43,3.9c0.08,0.69,0.25,1.34,0.47,1.99c-0.56,0.62-0.94,1.47-1.37,2.27
	c-1.58-0.02-1.43-1.46-3.02-1.47c-0.12,0.76-0.24,1.51-0.36,2.26c-0.68,1.13-1.85,1.56-3.47,1.36c-0.74,3.58-4.16,3.4-4.47,7.58
	c2.09,1.89,5.11,0.06,7.11-0.39c0.88-4.75,5.35-4.45,7.65-7.21c0.22,0.41,0.42,0.83,0.62,1.23c-0.27,1.46-0.38,2.99-0.59,4.32
	c-0.19,1.21-0.66,2.84-0.55,4.06c0.32,3.5,2.59,5.69,3.51,8.68c-0.39,1.04-0.77,2.09-1.12,3.14c-0.03-0.17-0.04-0.35-0.08-0.52
	c-0.09,0.54-0.18,1.09-0.26,1.63c-0.05,0.18-0.09,0.36-0.13,0.54l-0.07,0.19l0,0.07c-0.32,1.22-0.58,2.44-0.67,3.68
	c-0.03-0.1-0.04-0.21-0.07-0.31c-0.22,1.38-0.44,2.76-0.67,4.15c-0.25,1.24-0.46,2.52-0.64,3.9c0,0.03,0,0.06,0,0.09
	c0,0.02-0.01,0.04-0.01,0.06c0-0.01,0.01-0.02,0.01-0.02c-0.37,3.42,1.93,3.83,0.41,7.61c-0.81,2.01-1.49,3.97-1.96,6.02
	c0.01-0.09,0.01-0.18,0.02-0.27c-0.05,0.3-0.1,0.6-0.15,0.91c-0.07,0.33-0.15,0.64-0.2,0.97c-0.18,1.06-0.35,2.11-0.52,3.17
	c-0.24,0.52-0.31,1.27-0.29,1.94c-0.04,0.31-0.1,0.61-0.14,0.92c0,0.04,0,0.07-0.01,0.11c0,0.02,0,0.03-0.01,0.04
	c0,0,0-0.01,0.01-0.02c-0.47,3.97,1.45,5.75,2.48,9.29c0.76,2.62,2.82,5.7,4.29,7.92c0.05,0.08,0.11,0.15,0.16,0.22
	c-0.02,0.1-0.03,0.21-0.05,0.31c-1.32,0.09-0.99-1.16-2.58-0.85c-0.59,3.05-1.6,5.51-2.85,7.62c1.56,0.85,3.1,1.33,4.35,1.6
	c0.54-1.06,0.91-2.16,0.26-3.28c0.03-1.8,1.6-1.45,2.5-2.03c-0.38-0.52-0.38-1.11-0.23-1.72c2.24,2.28,5.04,4.1,5.25,7.44
	c-0.39,2.12-0.72,4.3-0.51,6.24c0.23,2.17,0.97,4.07,1.87,5.87c0.04,0.98,0.61,1.52,0.04,3c0.75,0.29,1.08-0.03,1.38-0.38
	c0.99,1.75,1.96,3.5,2.62,5.39c0.62,0.56,1.1,1.04,1.29,1.37c0.13-0.83,0.26-1.67,0.39-2.51c0.04-0.25,0.05-0.48,0.07-0.73
	c0.11-0.71,0.23-1.43,0.34-2.14c-0.08,0.39-0.15-4.02-0.24-3.66c0.19-7.51-4.33-5.55-4.35-13.13c-0.01-1.86,0.28-3.57,0.52-5.47
	c0.31-2.44-1.24-4.06-3.08-5.5l0.75-2.04l-3.95-7.18c0,0,0.87-2.77,1.59-2.81c0.73-0.04-0.71-4.88-1.82-7.12
	c-1.11-2.25,0-6.68,0-6.68s-2.31-5.71-2.17-6.37c0.14-0.66,0.83-6.62,0.83-7.91c0-1.28-1.21-7.22-1.58-8.67
	c-0.36-1.46,0.58-8.7,0.58-8.7l-0.06,0.18c0.28-3.33-0.82-4.81-2.37-8.01c-0.19-0.39-0.34-0.77-0.47-1.12
	c0.75-0.72,1.36-7.07,1.28-8.16c-0.26-3.75-3.76-6.96-4.21-11.13c-0.07-0.62-0.14-1.25-0.21-1.87c0.22,0.16,0.47,0.27,0.79,0.23
	c0.82-2.14-0.98-2.15-1.05-3.57c-0.04,0.01-0.06,0.06-0.09,0.08c-0.03-0.27-0.06-0.53-0.09-0.8c0.85-1.86,0.95-4.21,0.64-6.49
	c0.11-0.68,0.22-1.36,0.33-2.04c-0.15,0.6-0.26,1.03-0.42,1.41c-0.47-2.76-1.53-5.33-2.62-6.73c-2.83-3.64-7.81-6.57-8.13-12.06
	c-0.09-1.5-3.77-7.81-6.04-6.14c-1.63,1.2-5.97-2.88-6.33-4.57c-1.01-4.77-11.33-6.16-14.91-8.36c-0.72-0.44-1.62-1.33-2.51-1.42
	c-1.39-0.15-6.52,0.67-7.39-0.1c-2.61-2.33-1.39,0.47-4.79,0.84c-0.01,0.05-0.02,0.1-0.04,0.14c0,0.02-0.03,0.05-0.04,0.07
	c0.08,0.36,0.16,0.71,0.27,1C237.2,2.57,238.74,2.76,240.63,3.33z M146.92,194.86c0.63,0.09,0.63,0.84,0.62,1.6
	c1.75,0.14,2.54-0.63,2.55-2.14C148.89,194.09,147.13,193.09,146.92,194.86z M165.67,214.64c-0.06-0.73,0.19-1.17,0.44-1.6
	c-0.73-0.17-1.06-0.76-2.17-0.54C163.57,214.21,164.86,214.17,165.67,214.64z M156.75,198.6c0.07,1.25,0.14,2.5,0.21,3.74
	c1.83-0.09,2.69-2.77,1.93-3.74C158.18,198.6,157.47,198.6,156.75,198.6z M157.59,232.82c0.22,3.84,3.49,5.42,5.76,7.48
	c1.33,1.2,2.19,4.58,4.99,3.21c-1.64-3.18-1.91-9.5-1.28-13.37c-3.18,0.32-3.05-2.76-5.5-2.67
	C159.16,227.56,157.42,229.85,157.59,232.82z M149.59,185.23c4.24,0.64,4.96-2.05,4.48-5.88c-3.23-0.05-4.92-1.05-5.79,1.61
	C150.83,181.36,149.38,183.05,149.59,185.23z M142.31,188.98c-0.53,0-1.07,0-1.6,0c0.04,0.71,0.08,1.42,0.12,2.14
	C142.25,191.28,142.54,190.37,142.31,188.98z M277.64,106.88c0.53-0.5,1.17-1.67,1.96-2.09c0.41-0.22,1.16,0.33,1.6,0.17
	c0.32-0.12,0.44-0.92,0.71-1.08c1.67-0.92,3.27-1.22,4.72-2.37c0.36-2.26-0.52-3.51-0.16-5.77c-2.82-0.74-2.59,2.83-5.69,1.69
	C279.09,99.63,275.61,104.1,277.64,106.88z M162.13,199.14c0.3-2.06-2.68-2.06-2.14,0C161.1,200.02,160.67,199.09,162.13,199.14z
	 M261.32,72.25c0.27,0.33,0.35,0.84,0.29,1.49c2.05,0.03,4.11,1.61,5.92,0.74C267.24,72.22,263.85,71.23,261.32,72.25z
	 M173.45,114.66c0.13-2.58,0.69-4.75,2.91-5.35c-1.3-3.81-6.72-6.64-8.67-2.14c0.32,2.49,0.84,4.77,1.96,6.42
	C172.2,112.65,171.47,114.02,173.45,114.66z M158.75,129.1c0.53-2.7,3.24-3.35,3.38-6.42c-5.37-1.32-10.68,3.34-9.68,8.56
	c0.15,0.78,1.16,1.27,1.72,2.14c0.68,1.05,0.36,2.52,1.75,2.67c0.64-1.58-0.44-2.33-0.27-4.81
	C156.8,130.63,157.34,129.45,158.75,129.1z M219.39,75.63c2.59,1.25,5.55-1.02,8.49-1.07c-0.09-0.93,0.03-1.66,0.42-2.14
	C224.66,70.96,219.8,72.38,219.39,75.63z M105.73,257.96c0,0-4.37-2.89-3.42-4.03s0.51-7.61,0.04-9.32c-0.47-1.71,3.38,0.26,5.96,0
	c2.57-0.26,0-5.38,0-5.38s-5.49-0.19-5.9-4.03c-0.42-3.83,1.88-3.18,1.88-3.18l4.05-3.29c0,0-4.05-2.08-5.61-3.75
	c-1.55-1.67,3.01-3.79,3.01-3.79h2.76v-3.45l-2.39-0.7c0,0-2.55-2.41-3.28-3.75c-0.73-1.34,2.91-1.71,2.91-1.71s4.74,2.33,6.19,1.56
	c1.46-0.77,1.46-4.33,2.19-7.08c0.73-2.75-1.46-6.35-1.46-7.45c0-1.1,1.46-6.41,1.46-6.41l-4.67-2.51
	c-3.9,1.72-6.76,4.44-11.02,5.82c-2.01,3.01-5.26,4.83-8.19,6.97c-2.07,4.38-6.26,6.63-9.11,9.65c-2.07,2.2-2.77,3.51-3.96,5.9
	c-0.51,1.03-0.98,1.64-1.46,2.68c-1.14,2.49-2.04,5.08-2.8,7.76l-0.03-0.02c-0.82,2.93-1.45,6.02-2.04,9.3
	c-0.01,0.07-0.03,0.14-0.04,0.21c-0.29,1.64-0.57,3.3-0.85,5.05c0,0,17.22,10.66,36.63,16.56
	C106.04,258.64,105.73,257.96,105.73,257.96z M172.94,210.9c0.93-1.31,0.59-3.83,1.31-5.35c-0.97-0.48-1.72-1.2-2.26-2.14
	c-0.87-0.4-0.02-2.62-1.72-2.14c-0.15,1.37,0.15,3.12-1.36,4.28C170.92,206.62,170.12,210.68,172.94,210.9z M168.47,236.03
	c0.8,3.3,1.91,6.28,5.2,6.95c-0.06-3.52-1.26-5.84-2.08-8.55c1.73-1,1.09-2.57,3.03-3.21c0.32-0.11,2.22,0.98,3.21,0
	c0.88,0.96,1.03,2.68,3.33,2.14c1.95-2.48-2.01-2.49-1.37-5.35c-1.33-0.08-1.61,0.84-2.61,1.07c-1.26-2.25-2.38-4.65-4.1-6.42
	c-5.13,0.01-2.15,6.26-2.11,10.16C170.81,234.53,168.62,234.31,168.47,236.03z M288.2,135.64c-0.7-0.91-2.37-1.02-2.93-2.04
	c-2.66,0.85,1.51,2.47-0.38,5.72C287.02,139.53,287.45,137.35,288.2,135.64z M284.81,139.88c-0.7-0.26-1.34-0.23-1.92-0.13l0,0.09
	c0,0-3.01,1.77,1.45,6.32C284.5,144.07,285.61,141.21,284.81,139.88z M281.06,119.34c2.67-0.41,2.15-5.3,2.96-8.32
	c-1.74,0.32-2.18,2.48-3.74,3.05c-0.41,0.07-0.66,0.02-0.84-0.09c0,0,0,0.01,0,0.01l-0.35,3.3
	C280.21,117.59,279.54,119.35,281.06,119.34z M288.12,82.1c-1.64-0.46-2.05,0.82-3.82,0.17c-0.75,1.72-1.93,2.83-2.86,4.3
	c-0.11,0.69-0.21,1.51-0.31,2.33c2.19-1.07,3.84-2.91,6.89-2.77C288.26,84.62,288.74,82.91,288.12,82.1z M120.53,153.15
	c2.15-0.7,3.75,5.44,0.8,4.81c0.68,2.55,4.26,0.83,5.88,0c-0.58-3.58,1.56-4.6,3.41-5.88c-0.1-3.16-0.83-6.07-0.48-8.55
	c0.02-0.13-1.57-3.11,0.33-3.74c2.23-0.67,1.53,1.78,2.79,2.14c0.59,4.61-0.5,7.62,0.15,12.3c-4.52,0.1-4.67,5.67-1.21,6.95
	c2.21-0.78,2.98-2.92,3.44-5.35c1.69-0.32,1.71,1,2.67,0c-0.9-4.82-4.06-10.33-0.24-13.9c-0.46-1.22-2.31-0.95-3.3-1.61
	c-0.39-1.62-2.19-3.63-0.83-5.35c0.16-1.67-1.43-1.51-2.26-2.14c0.43-0.45,0.49-0.99,0.41-1.58c-2.47,1.9-5.43,3.31-6,6.39
	c0.16,2,0.25,4.07-0.16,5.85c-0.46,1.99-1.39,3.68-2.48,5.27c-0.14,0.9-0.77,1.35-0.36,2.78c-0.78,0.19-1.06-0.14-1.33-0.49
	c-1.32,1.73-2.63,3.44-3.5,5.4c0.45,0.84,1.02,1.63,1.72,2.36C119.61,157.01,119.78,154.98,120.53,153.15z M147.89,154.76
	c0.81-1.76,1.92-3.25,2.37-5.35c-1.88-2.16-3.23-4.89-6.71-5.35c-1.16,2.11-4.31,2.33-5.64,4.28c0.07,1.25,0.14,2.49,0.21,3.74
	C140.36,154.05,144.09,154.44,147.89,154.76z M113.75,180.01c-0.11-2.03-0.22-4.06-0.33-6.09c2.09-2.88,5.57-6.47,7.46-6.88
	c0.02-0.01,0.01-3.97-0.17-6.23c1.22,2.28,3.66,3.75,7.37,3.04c2.13,1.76,4.96,0.84,6.54,2.14c1.67,0.4,0.94-1.47,2.61-1.07
	c1.37,0.81,2.37,2.02,2.88,3.74c3.9,0.38,9.5,4.16,12.33,0.54c-1.21-0.42-2.15-1.12-3.8-1.07c-0.84-1.94-2.85-2.64-4.49-3.74
	c0.05-1.56-1.3-1.64-1.25-3.21c-0.8-0.09-1.96,0.19-2.17-0.53c-0.01-3.05,4.39-1.92,7.36-2.14c0.89,2.38,2.07,3.1,3.98,4.28
	c1.97,1.22,2.8,1.24,5.41,1.07c1.42,0.95,2.14,2.64,4.93,2.14c-0.44-1.98-1.68-3.13-2.41-4.81c-1.88-0.43-2.01,0.8-3.71,0.54
	c-1.59-1.9-3.18-3.8-3.6-6.95c0.5-2.57,4.55-1.77,5.67-3.74c-0.15-2.3-2.94-1.79-2.41-4.81c-1.32,0.08-2.59,0.1-2.73-1.07
	c-0.47-2.34-1.49-4.09-3.48-4.81c-0.05-0.89-0.1-1.78-0.15-2.67c4.75-1.91,9.31,1.01,10.43,4.81c1.92-0.14,2.63,0.99,4.34,1.07
	c1.09-0.83,2.3-1.54,3.62-2.14c2.38,1.26,2.63,4.77,4.64,6.42c1.43-0.33,2.44-1.06,3.09-2.14c-0.73-1.49-2.37-2.02-3.89-2.67
	c-0.63-2.54-1.85-4.46-3.03-6.42c-2.03-0.57-1.45,1.33-3.15,1.07c-0.47-2.71-4-2.18-4.55-4.81c1.22-1.55,1.53-3.96,3.47-4.81
	c2.31,1.28,3.72-0.25,4.16-2.14c-1.4-0.41-2.34-1.3-2.82-2.67c-0.9-3.9,0.79-5.16,2.34-5.88c0.2-0.09,0.23-0.96,0.48-1.07
	c1.46-0.65,3.48-1.04,4.28,0c0.61,2.94-1.14,3.65-0.71,6.41c0.77,1.46,2.69,1.69,3.39,3.21c-0.07,1.4,0.32,2.3,1.72,2.14
	c-0.66-1.11-0.77-2.57-1.31-4.28c-0.42-1.34-2.75-3.35-0.24-4.28c2.02,0.43,9.04,3.98,9.65,0.54c-1.07,0-2.14,0-3.21,0
	c-1.47-2.39-3.58-1.9-4.52-4.28c-0.12-0.31,0.48-1.72,0.39-2.67c-0.12-1.23-1.19-2.03-0.71-3.21c0.7-1.03,2.54-0.97,3.65-1.6
	c0.25-0.94-0.82-3.14,0.36-3.21c3.68-0.12,4.65,2.62,8.67,2.14c0.74,1.29,1.47,2.6,1.84,4.28c2.36,0.54,2.4-1.11,3.65-1.6
	c-1.98-2.93,1.08-7.82-1.61-9.62c0.39,1.89-0.3,2.75-1.43,3.21c-1.25,0-2.49,0-3.74,0c0.15-1.29-1.04-1.16-0.68-2.67
	c-2.6,0.04-2.92,2.34-5.2,2.67c-1.93,0.28-6.16-1.27-7.04-1.6c-3.43-1.32-5.88-0.69-9.18-1.6c-0.17-0.76-0.93-0.9-1.16-1.6
	c0.3-1.64-0.65-1.95-0.71-3.21c-1.08,0.22-1.18-0.66-1.66-1.07c-1.91-1.62-2.67-3.01-3-5.88c2.1-1.05,6.18-0.22,6.24-3.21
	c-2.75-1.33-5.19-1.97-5.61-4.81c-0.32-2.17,2.16-4.03,2.88-5.88c1.61-0.39,1.98,0.55,3.24,0.54c1.11,0.91,0.41,3.72,2.35,3.74
	c-1.16-5.55,4.99-3.35,7.37-2.14c1.15-1.39-1.23-2.47-1.81-3.74c-2.38,1.76-6.15,0.59-7.04-1.6c-3.15,0.7-4.04-1.01-5.97-1.6
	c-0.64,1.58,0.44,2.33,0.27,4.81c-0.92,1.15-1.5,2.63-2.46,3.74c-0.98,1.1-0.55,3.53-2.47,3.74c-2.27-0.42-2.69-2.81-6-2.14
	c-0.77-1.45-1.82-2.61-2.38-4.28c-1.83,0.43-2.1-0.8-3.77-0.53c-0.7,0.69-0.4,2.32-0.33,3.74c4.56,0.26,5.47,4.4,10.4,4.28
	c1.03,2.49,4.45,2.46,5.11,5.35c-0.78,0.28-1.31,0.79-2.08,1.07c-1.95-0.38-1.7-3.11-3.92-3.21c0.37,2.28-1.8,2.01-2.53,2.68
	c-0.34,0.31,0.15,1.53-1.01,1.07c-3.2,0.75-2.59-2.54-5.47-2.14c0.12,2.13-0.89,3.21-0.77,5.34c1.32,1.22,2.86,1.65,4.43,2.67
	c0.26,0.17,0.29,0.93,0.59,1.07c0.42,0.19,1.22-0.24,1.61,0c0.74,0.47,1.25,1.62,1.72,2.14c0.07,1.63-0.11,3.52,1.78,3.21
	c-0.33-2.17-0.01-3.73,1.93-3.74c4.43,0.85,6.54,4.45,8.44,7.48c-1.01,1.57-1.41,3.73-3.5,4.28c-3.58-1.88-5.58-5.41-9.98-6.42
	c-1.02,0.22-0.31,2.07-2.05,1.6c-1.49-0.69-1.69-2.74-3.39-3.21c0.49,2.88-0.55,7.38,2.05,8.02c1.82,0.2,0.71-2.37,3.12-1.6
	c1.11,0.15,1.15,1.43,1.72,2.14c4.42,0.43,10.25,2.35,8.44,7.48c-1.6,1.41-2.89-1.13-4.87-1.07c-1.44,1.09-2.14,0.96-4.25,0.54
	c-0.21-2.42-1.05-4.17-1.93-5.88c-0.04,3.68-2.16,5.39-3.3,8.02c0.69,1.54,3.93,0.36,4.4,2.14c-0.7,3.06-4.17,3.48-4.42,6.95
	c-1.31,1.32-2.65-0.52-4.81,0c-0.93,1.15-0.14,3.92-0.21,5.88c-1.4,0.7-0.89,3.21-3.03,3.21c-1.34-2.35-2.31-5.11-2.62-8.55
	c-1.54-0.44-1.34,0.75-2.64,0.53c-0.01-0.1-0.01-0.2-0.02-0.3c0.06-0.06,0.12-0.12,0.18-0.19c1.69-1.92,4.06-4.57,5.09-6.93
	c1.4-3.18,3.48-4.65,3.45-8.38c0,0.01,0,0.01,0,0.02c0-0.01,0-0.02,0-0.04c0-0.04,0.01-0.06,0-0.1c-0.01-0.29-0.03-0.58-0.04-0.87
	c0.1-0.62,0.1-1.32-0.08-1.83c-0.06-1-0.12-2-0.18-3c-0.02-0.31-0.06-0.61-0.09-0.92c-0.02-0.29-0.03-0.57-0.05-0.86
	c0,0.08-0.01,0.17-0.01,0.26c-0.25-1.95-0.71-3.84-1.3-5.79c-1.11-3.66,1.22-3.81,1.21-7.02c0,0.01,0,0.01,0,0.02
	c0-0.02,0-0.04,0-0.06c0-0.03,0.01-0.05,0.01-0.08c-0.03-1.3-0.11-2.51-0.22-3.69c-0.07-1.31-0.15-2.61-0.22-3.92
	c-0.04,0.09-0.07,0.19-0.1,0.28c0.05-1.41-0.11-2.83-0.38-4.25c-0.03-0.51-0.06-1.02-0.09-1.54c-0.06,0.16-0.08,0.32-0.13,0.48
	c-0.23-1.01-0.5-2.02-0.77-3.03c1.22-2.68,3.72-4.49,4.4-7.71c0.24-1.12-0.05-2.68-0.11-3.82c-0.07-1.25-0.02-2.68-0.13-4.07
	c0.24-0.36,0.49-0.72,0.75-1.08c1.98,2.79,6.44,2.96,6.81,7.46c1.94,0.61,4.74,2.62,7.01,1.07c0.13-3.92-3.27-4.09-3.63-7.48
	c-1.63,0.02-2.75-0.49-3.3-1.61c-0.04-0.71-0.08-1.42-0.12-2.14c-1.57-0.14-1.58,1.21-3.15,1.07c-0.34-0.78-0.63-1.61-1.12-2.24
	c0.28-0.58,0.53-1.17,0.68-1.8c0.28-1.19,0.56-2.39,0.84-3.58c0.45,0.22,0.9,0.43,1.35,0.67c1.03,0.57,2.11,1.86,3.83,1.61
	c-0.32-3.12-2.21-4.59-4.38-5.75c0.29-1.23,0.58-2.45,0.86-3.68c0.1-0.43,0.16-1.97,0.13-3.57c0.15,0.09,0.31,0.15,0.53,0.17
	c0.47-0.52,0.5-1.45,0.42-2.49c0.27-0.29,0.56-0.57,0.84-0.85c0.21-0.09,0.37-0.24,0.47-0.44c3.81-3.53,8.48-6.26,9.5-11.98
	c0.06-0.34,2.64-10.43,3.89-8.52c1.33,2.02,6.69-2.68,9.09-2.66c-0.39,0,1.16-3.11,1.21-3.18c1.02-1.55,4.44-1.28,6.06-1.64
	c2.41-0.54,5.19-2.86,7.61-2.86c2.17,0,4.2,0.01,6.35,0.57c1.32,0.34,2.55-0.98,3.86-1.21c1.93-0.35,3.48-0.36,4.63,0.13
	c-1.43,0.55-1.43,2.46-2.79,3.07c-1.25,0-2.5,0-3.74,0c-1.32,0.94-2.18,2.33-3.56,3.21c-3.35,0.36-4.37,1.99-6.24,3.21
	c-0.77,0.5-2.19,0.72-2.61,1.07c-2.6,2.19-3.63,6.07-7.07,7.48c-1.76,6.39-7.42,12.93-3.62,21.39c-0.71,2.7-2.1,4.75-2.22,8.02
	c2.38,0.69,2.73,2.85,3.98,4.28c0.66,0.75,2.07,0.89,1.72,2.14c-2.05,0.25-2.11,2.39-3,3.74c-0.76,0.29-2.8-0.62-2.64,0.54
	c1.29,1.65,4.06,1.74,6.53,2.14c1.44,0.13,2.16,2.25,3.27,1.07c0.81-2.97,0.51-5.34,1.72-7.49c0.74-1.31,2.61-1.5,3.59-2.67
	c0.16-0.19-0.15-0.83-0.06-1.07c0.38-0.97,1.73-1.42,1.99-2.68c1.34-0.75,3.58-0.66,3.03-3.21c-2.25,0.39-2.45,2.31-4.66,2.68
	c-1.79,0.29-3.47-1.05-5.91-0.54c-0.4-2.46-1.85-4.22-1.96-6.42c-0.08-1.5,2.02-2.89,0.3-4.28c0.6-1.45,2.5-1.68,3.03-3.21
	c-0.77-1.26-3.43-0.53-3.36-2.67c0.26-0.77,0.76-1.31,1.51-1.6c3.58-0.39,5.04,1.46,8.61,1.07c-1.38-2.43-0.78-3.73-1.43-6.41
	c3.28,0.57,2.63-2.57,3.5-4.28c2.17-0.61,4.17-0.61,6.42,0c0.9-0.33-0.18-2.54,0.92-2.67c2.08-0.73,3.72-1.88,6.86-1.6
	c0.72-0.84,1.24-1.86,2.55-2.14c1.14,0.31,1.6,1.32,3.27,1.07c1.46-2.94-1.46-4.23-0.39-6.95c-0.52-0.49-1-1.01-1.47-1.54
	c1.11,0.46,2.02,0.65,1.93-0.27c-0.11-1.14-7.68-5.54-7.69-5.58c0,0,9.85,1.03,15.48,2.04c-1.21,3.11,0.38,6.78,4.1,6.42
	c-0.22-3.35-2.16-4.89-4.1-6.42c0,0,3.09-1.9,6.27-2.67c-2.13,1.85,0.09,5.43,0.95,7.48c2.44,1.45,3.29-1.17,4.25-0.53
	c0.81,1.41,0.7,2.66,1.25,3.21c1.38,1.36,3.01,2.63,3.98,4.28c1.62,2.74,1.89,6,4.16,7.48c5.34,0.6,10.32-1.61,14.97,0
	c0.29,6.3,2.69,10.36,4.07,15.51c-0.49,1.23-2.26,2.77-3.65,1.61c-0.89,0.67-1.3,1.8-3.12,1.6c-0.11-1.01-1.79-0.37-1.69-1.6
	c0.46-0.92,1.71-1.08,2.02-2.14c-3.13-0.65-5-2.64-7.69-3.74c-0.89,1.19-1.98,2.17-1.34,4.81c-1.4,0.94-1.2,4.41,0.3,5.35
	c2.12-0.53,4.66-0.66,7.45-0.53c1.13,0.51,0.61,2.75,2.29,2.67c2.17,0.37,3.02-0.51,4.78-0.54c1.5,2.56,5.28,2.72,6.21,5.88
	c1.32,0.3,2.77,0.46,2.79,2.14c-0.38,5.38-8.16,3.75-13.1,4.81c-0.14-0.42-0.48-0.62-1.1-0.54c-0.53-1.51-0.8-3.3-1.34-4.81
	c-1.38-0.99-3.11-1.62-3.92-3.21c0.63-3.5-2.26-5.65-4.51-4.28c0.14,3.43,3.03,3.96,3.09,7.49c-4.43-0.15-4.75,3.6-7.75,4.81
	c-2.62-1.92-7.18,0.14-11.26-0.53c-1.15-0.19-2.15-1.05-3.27-1.07c-4.86-0.09-9.17,1.85-10.99,4.28c-1,1.33-2.07,1.88-3.06,2.67
	c-1,0.8-0.91,1.83-1.46,2.68c-0.63,0.99-1.76,1.72-1.99,2.67c-0.58,2.42-0.79,4.64-0.68,6.95c4.29,4.93,8.73-1.37,14.46,0.53
	c1.02,1.75,2.96,2.53,3.98,4.28c1.37,0.06,2.75,0.1,2.76,1.6c-1.75-0.31-2.47,0.37-3.71,0.54c0.07,1.42,0.47,3.15-0.89,3.21
	c-2.94,0.09-2.73-3.14-6.53-2.14c0.34,2.66,1.73,4.2,1.99,6.95c1.38,1.18,4.15,0.89,4.46,3.21c-0.08,1.1-2.36,0.13-2.05,1.6
	c0.82,0.83,2.76,0.47,4.31,0.54c2.35-2.43,5.45-4.09,7.69-5.88c0.95-0.76,1.96-1.43,2.55-2.14c0.47-0.56,0.35-1.65,0.92-2.67
	c0.46-0.83,1.73-1.43,2.02-2.14c0.45-1.1-0.29-2.85,0.86-3.74c0.89,0,1.78,0,2.67,0c0.22-0.99,0.98-1.68,1.45-2.68
	c1.33-2.83,1.14-7.91,3.8-8.55c0.69,0.03,0.78,0.68,1.63,0.53c1.63,8.09,5.62,13.68,6.6,22.46c1.92,1.56,3.15,3.83,4.1,6.42
	c-1.01,1.79-3.38,3.45-4.58,4.28c-0.47,0.32-0.62,0.79-1.01,1.07c-3.37,2.48-5.42-0.61-9.12-0.53c-1.18,0.03-2.4,0.74-3.15,1.07
	c-0.89,0.39-2.85,0.29-2.55,2.14c0.89,1.89,3.02,2.46,4.99,3.21c2.33,3.14,3.89,7.43,1.13,10.69c-2.85,0.74-6.96,1.36-10.63,1.07
	c-2.72-0.22-4.68,0.17-7.42,1.07c-3.22,1.06-5.81,7-4.75,10.69c3.62-0.72,6.69-5.32,11.4-6.42c1.02-0.23,2.48,0.15,3.74,0
	c2.4-0.27,6.29-1.96,7.04,1.61c-1.12,1.97-3.74,2.53-5.11,4.28c-2.02,0.45-3.95,0.98-4.1,3.21c3.13,3.3,9.85,1.77,15.06,1.61
	c2.9,2.77,7.37,3.9,6.98,10.16c-1.24,0.68-1.86,1.95-4.19,1.61c-1.09-2.61-0.39-4.6-0.42-7.49c-4.67,0.67-6.26,4.35-9.3,5.88
	c-0.65,0.33-1.53,0.17-2.64,0.53c-0.86,0.29-1.71,1-2.61,1.07c-3.09,0.22-5.91-1.04-7.04-1.61c-0.74-0.37-1.5-0.09-2.17-0.53
	c-2.06-1.37-3.89-5.67-6.24-6.42c-3.68-1.17-5.71-1.47-9.15-1.07c-1.46,0.17-3.32,0.57-5.29,1.07c0.04,1.65,1.7,1.59,3.3,1.6
	c2.4,2.16,3.33,4.04,4.64,6.42c2.92,5.33,3.19,8.83,8.64,11.23c1.31,0.57,3.43,0.64,4.87,1.07c0.2,0.06,0.84,1,1.13,1.07
	c2.1,0.49,4.38,0.01,6.45,0.54c1.44,0.37,2.53,1.49,3.83,1.6c3.61,0.3,7.05-1.39,11.17-1.07c1.14-0.95,1.67-2.47,3.59-2.67
	c1.57,1.19,2.89,2.2,3.98,4.28c0.37,0.71-0.09,1.9,0.15,2.67c0.39,1.27,2.09,1.36,1.75,2.67c-1.85,3.65,1.99,4.67,1.55,8.55
	c2.35-0.41,2.25,1.77,3.36,2.67c2.23-0.28,3.04,0.93,4.87,1.07c0.29,1.02,1.23,1.34,1.22,2.67c0.93,0.21,1.33-0.79,1.6,0
	c0.62,1.23,1.94,1.72,1.81,3.74c-2.55,0.43-2.06-2.35-4.9-1.6c-0.3,1.64,1.01,1.57,0.71,3.21c-1.14,0.01-1.45-0.02-1.54,1.07
	c-0.16,1.94,2.57,4.22,4.01,4.81c-0.3,1.2-1.46,2.68-0.33,3.74c1.32,1.26,2.62-0.09,4.28,0c-0.18-2.19,1.71-2.43,3.03-3.21
	c0.7-4.66-1.92-10.53,3.08-11.76c2.7,1.49,6.02,2.31,7.25,5.35c-0.72,1.01-0.63,2.78-1.96,3.21c-1.65,0.18-2.62-1.24-3.74,0
	c-1.98,5.16,4.07,4.98,8.26,4.28c3.03,3.23,2.37,7.74-1.1,9.09c-0.46,0.18-1.67-0.59-3.24-0.53c-2.84,0.09-4.91,0.55-5.97-1.6
	c-1.74-3.23,2.4-4.42-0.86-5.88c-1.48,0.98-0.74,4.63-1.21,6.95c-0.21,1.03-0.92,1.13-0.95,2.14c-0.1,3.71,0.49,8.16,3.15,8.56
	c0.43-1.68,3.67-2.61,1.87-4.81c-0.9-1.78-2.11,2.11-2.7-0.54c0.5-0.71,0.4-1.99,1.49-2.14c3.28,0.3,5.91,1.29,7.16,3.74
	c-1.58,1.2-2.68,2.87-4.04,4.28c-0.67-0.62-1.92-0.6-3.24-0.53c-0.12,2.22,2.04,2.87,3.42,3.74c1.4,0.88,3.33,1.68,4.93,2.14
	c0.91,1.56,1.84,2.11,3.36,2.68c0.94,0.35,1.66-0.59,2.11-0.54c1.51,0.17,1.94,2.15,3.3,1.6c1.53-0.24,1.57-1.89,3.65-1.6
	c1.8,0.01,2.48,4.13,1.37,5.35c0.07-1.4-0.32-2.3-1.72-2.14c-1.53-1.46-1.25,1.38-3.15,1.07c-1.07,0-2.14,0-3.21,0
	c0.98,3.8-1.44,4.38-3.44,5.35c-0.18,1.89,1.97,1.32,1.78,3.21c-0.9,1.51-2.64,2.23-2.4,4.81c2.68-0.01,5.64-0.31,5.5,2.68
	c-1.41,1.43-2.67-0.5-4.31-0.53c-3.83,1.68-10.74,1.13-15.47,0.53c-1.39-1.36-1.88-3.67-2.97-5.35c-3.56,0.66-6.86,4.43-11.97,5.88
	c-1.5,0.43-3.64,0.11-5.31,0.54c-1.52,0.39-2.73,1.32-4.19,1.6c-0.93,0.18-2.03-0.14-3.21,0c-1.46,0.17-2.9,0.9-4.22,1.07
	c-5.49,0.72-8.22,0.59-10.81-2.14c0.21-2.06,2.44-3.09,2.91-5.35c0.42-2-0.85-4.17,0.18-6.41c-1.6-1.37-1.18-3.57-1.9-5.35
	c-0.28-0.68-0.96-1.52-1.19-2.14c-0.41-1.11-0.35-2.31-0.71-3.21c-0.53-1.31-1.84-2.46-2.35-3.74c-0.57-1.45-0.86-3.28-1.34-4.81
	c-1.03-3.32-2.65-6.34-3.72-9.09c-0.67-1.73-0.78-3.62-1.37-5.35c-0.24-0.7-0.98-1.29-1.19-2.14c-0.21-0.84,0.13-1.85-0.15-2.67
	c-0.23-0.66-1.49-1.57-1.75-2.67c-0.58-2.39-0.91-2.96-1.84-4.28c-0.03-4.31-1.59-7-3.21-9.62c-0.33-6.56-3.81-12.42-10.22-10.69
	c-0.74,4.93,4.67,3.36,5.71,6.42c1.01,1.01,0.59,3.53,0.83,5.35c-0.74,1.33-1.98,2.18-1.9,4.28c3.75,3.44,9.69,9.91,5.14,15.5
	c4.15,0.33,5.59,5.57,3.71,9.09c6.78,0.17,4.69,7.9,6.1,13.37c0.97,3.79,5.1,6.56,3.21,9.62c-1.03-0.23-1.41-1.15-2.73-1.07
	c-0.86-1.54-0.78-4.09-2.91-4.28c1.24,1.68,0.14,3.76,0.27,4.81c0.04,0.29,0.82,0.63,0.62,1.6c-0.27,1.3-1.78,3.28-2.97,4.28
	c-1.39,1.17-5.16,1.5-7.96,1.07c-1.1-0.17-2.75-2.55-3.24-0.54c1.09,1.11,2.62,1.76,2.38,4.28c3.08,1.42,5.83-0.54,9.06-0.53
	c1.28-1.49,1.8-3.69,5.17-3.21c1.62,2.74,0.2,6.47,0.54,9.62c-1.33-0.06-1.71-1-2.67,0c0.56,3.57-1.47,4.69-3.98,5.35
	c-0.16,1.79,2.27,3.13,2.97,5.35c0.35,1.09,0.86,5.9,0.86,5.88c-0.21,0.8-0.56,1.37-1.01,1.8c-3.88,0.1-7.78,0.17-11.71,0.17
	c-4.36,0-8.67-0.09-12.96-0.21c0.13-0.64,0.08-1.45-0.01-2.3c-0.64-0.45-1.47-0.71-2.7-0.54c-0.51,0.55-0.5,1.6-0.4,2.74
	c-1.53-0.05-3.06-0.11-4.57-0.18c-1.2-1.98-4.59-1.64-5.28-4.16c-0.88-1.85,0.46-2.52-0.74-3.74c-0.26,1.78-0.83,3.26-2.47,3.74
	c-1.67-1.25-3.56-2.27-3.51-5.35c-2.49,0.17-2.42,2.77-5.19,2.67c-0.97-0.49-1.91-0.99-1.76-2.67c0.71-2.2,5.45-0.58,5.7-3.21
	c-0.51-1.34-2.86-0.74-3.83-1.6c-0.97-1.04-1.1-2.99-1.84-4.28c-2.32-0.17-1.15,2.96-3.59,2.67c-0.57-1.83-2.74-2.03-3.92-3.21
	c-0.47-0.46-0.18-1.68-0.65-2.14c-0.18-0.17-0.91,0.18-1.07,0c-0.75-0.85-1.31-1.79-1.75-2.67c1.04-0.54,0.71-2.36,2.55-2.13
	c2.4,2.29,5.11,0.78,8.64,1.6c-0.4-1.39,0.11-1.92,1.51-1.6c-0.07-1.25-0.14-2.5-0.21-3.74c1.49-1.79,3.29-3.3,3.95-5.88
	c2.34-0.65,3.69-1.94,6.3-2.14c1.8-0.14,3.89,2.11,4.81,0c-3.3-0.65-4.38-3.66-6.71-5.35c-0.72-1.5-0.79-3.69-0.86-5.88
	c-1.35-1.03-1.93-2.86-3.42-3.74c-1.56,1.9-1.76,5.08-3.35,6.95c-2.36-0.53-3.21-2.64-3.51-5.35c-1.14-0.68-2.76-0.85-2.82-2.67
	c0.41-0.12,0.6-0.45,0.48-1.07c3.02-0.92,4.74,2.5,6.98,0.53c-1.82-3.55-4.9-5.75-5.41-10.69c1.64-1.15,3.18-2.4,2.35-5.88
	c-2.67,0.01-3.32,1.92-6.33,1.6c-1.01-2.33-1.95-4.73-2.56-7.48c-0.76-1.08-2.87-0.73-3.33-2.14c0.16-1.07,1.1-3.97-0.27-4.81
	c-1.64,1.15-2.54,3-4.6,3.74c-0.6-1.63-2.69-1.67-2.88-3.74c1.67-1.63,2.1-4.42,6.21-3.74c0.25-1.11,0.93-1.82,2.02-2.14
	c0.02-1.72-1.07-2.26-0.77-4.28c2.34-0.66,1.13-4.66,4.01-4.81c-0.39-2.01-0.81-2.44,0.89-3.21c2.64-0.21,3.32,2.27,5.41,1.07
	c-0.08-3.28-1.07-7.43,1.13-8.55c0.81-1.1,3.95,0.02,4.75-1.07c-0.37-3.73-1.7-4.81-1.01-8.55c-1.26,0.32-2.4,0.77-4.25,0.53
	c0.21,3.4,0.59,4.82-1.3,5.35c0.14-0.04-1.13-1.25-1.69-1.6c-1.04-0.67-2.6-0.75-2.23-1.61c0.49-3.34-1.52-4.06-2.47-5.88
	c-1.45-0.57-1.23,0.76-2.64,0.53c-1.28-0.21-1.43-1.73-2.23-1.61c0.03,0-0.83,0.96-1.01,1.07c-0.67,0.38-2.36,0.42-2.02,2.14
	c0.29,1.2,2.93-0.08,2.76,1.6c-0.38,1.12-2.08,2.09-0.89,3.21c4.07-1.7,7.58-1,8.71,2.67c0.76,2.5-1.62,4.83-0.62,8.02
	c-3.75,0.33-3.12,4.81-8.35,3.74c-0.45,1.99,1.22,1.72,1.75,2.67c-1.19,0.9,0.78,4.79-1.9,4.28c-1.69-1.04-2.33-3.2-2.47-5.88
	c-1.61,0.39-1.98-0.55-3.24-0.53c0.68,2.25,4.72,3.9,1.96,6.41c0.63,0.17,2.61,1.65,1.19,2.14c-2.46-1.09-4.09,0.28-6.48-1.07
	c-0.97,0.43-1.91,0.89-3.15,1.07c-1.63-1.11-3.4-2.06-6-2.14c-0.03,0.99-1.79,0.33-2.08,1.07c-0.25,1.45,0.91,4.24-0.27,4.81
	c-2.27-0.39-0.78-2.83-1.31-4.28c-0.07-0.2-1-0.8-1.13-1.07c-0.43-0.86-0.21-1.5-0.65-2.14c-0.63-0.91-1.43-2.18-2.79-2.14
	c-2.11-0.15-1.51,2.29-3.62,2.14c-1.49-0.5-2.37-1.64-3.86-2.14c0.36,2.37-0.7,3.39-2.46,3.74c-1.65-0.51-2.35-2.05-3.39-3.21
	c-2.36,0.42-3.25-0.71-5.38-0.53C115.17,174.36,114.41,177.14,113.75,180.01z M176.61,247.79c-0.65,0.7-0.57,1.97,0.15,2.67
	C179.06,250.65,179.43,247.45,176.61,247.79z M218.3,209.29c1.9-0.06,2.05-1.77,1.93-3.74C217.65,204.97,218.14,207.29,218.3,209.29
	z M290.13,241.37c0.65,0.45,1.47,0.7,2.7,0.53c0.15-1.67-0.6-2.39-2.26-2.14C290.64,240.5,290.39,240.94,290.13,241.37z
	 M248.74,179.89c0.69,1.54,1.13,2.92,1.84,4.28c1.41,2.7,3.3,5.21,4.73,8.02c0.37,0.73,0.41,1.62,0.65,2.14
	c0.37,0.79,0.74,1.31,1.19,2.14c1.46,2.67,2.89,5.46,4.19,8.02c0.85,1.66,1.78,2.83,2.38,4.28c1.25,3.02,1.82,5.92,3.15,8.55
	c0.62,1.23,1.57,1.98,2.32,3.21c0.68,1.12,0.45,3.3,2.35,3.74c-0.49-5.2-2.85-10.25-4.58-14.97c-0.84-2.29-1.64-4.67-2.53-6.95
	c-0.38-0.98-1.35-2.06-1.78-3.21c-0.49-1.3-0.25-3.06-0.77-4.28c-0.36-0.84-1.31-1.34-1.72-2.14c-0.62-1.17-0.69-2.17-1.25-3.21
	c-2.06-3.81-4.1-7.39-6.48-10.69c-1.33-1.83-2.69-3.17-4.01-4.81c-0.73,0.02-1.19-0.25-1.63-0.53
	C246.45,176.76,247.81,177.83,248.74,179.89z M142.38,123.21c-0.66,0.89-2.33,0.83-3.12,1.6c0.57,1.66,0.76,3.73,2.88,3.74
	C140.62,125.36,144.93,124.27,142.38,123.21z M173.11,60.66c-0.76-0.76-3.07-0.76-3.74,0c-0.05,2.32,1.63,2.8,3.39,3.21
	C172.67,62.61,173.59,62.3,173.11,60.66z M193.91,98.09c-0.36-3.77-2.87-5.27-4.19-8.02c0.23-3.18-2.17-5.64-3.15-8.55
	c-0.55-1.63-0.18-3.62-0.83-5.35c-0.57-1.49-2-2.28-2.35-3.74c-0.14-0.42-0.48-0.62-1.1-0.54c0.04,2.91-1.08,3.99-0.71,6.42
	c0.42,2.76,3.19,4.57,3.6,6.95c0.49,2.87-0.74,4.24-1.19,7.49c1.37,2.52,2.8,4.96,4.67,6.95C189.69,98.47,191.34,97.84,193.91,98.09
	z M179.03,185.77c-0.24,2.33,1.08,3.01,0.83,5.35c2.69,0.19,2.49-2.37,4.66-2.67c-0.01-1.88-1.9-1.76-2.32-3.21
	c-0.52-1.72-0.93-3.54-1.87-4.81c-1.99,0.41-2.59-0.65-4.31-0.53C175.54,183.42,178.41,183.4,179.03,185.77z M187.15,254.74
	c0.1-2.18-0.73-3.37-2.85-3.21C183.77,254.17,185.79,254.11,187.15,254.74z M200.19,239.23c-0.71,0-1.43,0-2.14,0
	c-1.33,0.88-2.17,2.42-3.56,3.21c-0.87,0.49-1.85,0.15-2.64,0.53c-0.2,0.1-0.21,1-0.48,1.07c-0.91,0.25-2.13-0.19-3.21,0
	c-1.99-0.73-2.79-2.71-4.99-3.21c0.41,1.74-0.22,2.49-0.32,3.74c-1.75-0.14-2.54,0.64-2.55,2.14c2.73,0.61,5.89,1.21,8.59,0.54
	c1.31-0.33,2.12-1.98,3.65-1.61c1.91,0.25,3.16,1.19,5.41,1.07C198.49,244.04,200.66,242.89,200.19,239.23z M200.46,234.42
	c0.12-3.55-5.36-5.24-5.97-1.6C197.24,232.54,197.64,234.76,200.46,234.42z M206.24,223.19c1.89-1.09,3.19-0.09,4.84,0.54
	c1.99-1.5,2-4.86,2.79-7.48c-4.97-1.64-8.24-0.22-13.37,0c-1.25-0.86-2.36-3.88-3.89-2.67c-1.21,0.55,0.21,3.58-1.96,3.21
	c-0.36,0-0.71,0-1.07,0c-0.96-0.49-1.28-1.67-1.25-3.21c-3.26,0.44-2.76-3.11-5.53-3.21c-1.1,5.94,1.62,12.58,9.18,11.23
	c0.38-1.66,0.34-3.73,2.46-3.74c1.38,0.43,1.49,2.2,2.32,3.21C202.5,221.88,205.8,221.03,206.24,223.19z M195.9,191.12
	c-0.07,1.62-1.55,1.91-0.83,4.28c0.89,0,1.78,0,2.67,0c0.62,0.81,1.95,3.47,3.45,4.28c1.58,0.86,4.11,2.37,4.78-0.53
	c-5.97,0.18-8.71-9.77-2.76-11.23c-1.68-1.22-4.6-0.23-6.42,0c-1.64,0.08-2.51-1.88-3.77-0.53
	C192.64,190.04,195.96,188.78,195.9,191.12z M195.8,160.64C197.8,165.48,200.03,157.92,195.8,160.64L195.8,160.64z M211.62,233.35
	c-2.2-1.63-5.1-2.52-6.18-5.35c-0.54,0-1.07,0-1.6,0c0.05,1.06-1.42,0.68-0.95,2.14C203.36,233.3,208.83,236.33,211.62,233.35z
	 M208.98,243.51c0.24-1.95-1.27-2.05-1.28-3.74c-1.32-0.07-2.58-0.08-3.18,0.53C205,242.45,206.4,243.61,208.98,243.51z
	 M208.15,247.79c-0.04,2.3,0.2,4.31,2.38,4.28c0.25-1.28,0.63-2.44,0.3-4.28C209.93,247.79,209.04,247.79,208.15,247.79z
	 M210.59,253.13c-3.74-0.16-2.53,4.36-4.48,5.88c4-0.84,4.57,1.96,7.61,2.14c2-1.48,5.52-1.52,7.87-2.67
	c0.05-2.32-1.63-2.8-3.39-3.21c0.15,1.33,0.24,2.59-0.92,2.67C212.9,258.62,210.88,256.79,210.59,253.13z M214.48,246.18
	c-1.76-0.77-3.11-1.99-4.96-2.67c0.04,1.66,0.79,2.55,1.28,3.74C212.49,247.34,214.02,247.27,214.48,246.18z M208.22,172.4
	c2.63,0.67,3.29-2.2,1.93-3.74C207.69,168.15,206.91,170.91,208.22,172.4z M204.57,183.63c0.15,4,1.79,6.41,6.21,5.88
	c1.03,0.79,0.96,2.76,2.82,2.67c1.95-3.29-0.02-6.82-3.09-7.49c-1.42-0.31-1.66,0.57-3.18,0.53
	C206.06,185.07,206.23,183.38,204.57,183.63z M199.39,148.34c1.63,1.98,3.82,2.45,6.47,1.07
	C206.11,145.32,200.69,146.92,199.39,148.34z M198.64,134.98c1.41,0.15,2.29-0.19,2.05-1.61
	C199.29,133.22,198.4,133.57,198.64,134.98z M190.5,123.21c1.44,1.61,2.4,0.22,4.34,1.07c2.44,1.56,1.33,6.89,4.19,8.02
	c0.76-3.75-1.71-8.69-3.33-11.76C193.04,120.55,191.78,121.89,190.5,123.21z M188.03,203.41c-0.9-2.26-1.51-4.82-4.55-4.81
	c-2.18,1.65,1.3,3.41-0.24,5.35c-1.78,0-1.92-1.74-3.83-1.6c-0.84,1.17,0.97,3.16,1.84,4.28c1.1-0.65,1.44-2.01,3.09-2.14
	c1.58,0.59,2.66,1.71,3.89,2.67c1.67,0.4,0.95-1.47,2.61-1.07c1.97-0.32,5.7,1.01,5.26-1.6
	C193.57,203.61,190.89,202.39,188.03,203.41z M183.98,159.57c-0.46,2,1.41,1.52,1.25,3.21c1.54,0.4,2.16-1.05,3.12-1.6
	c0.64-0.37,2,0.31,1.54-1.07C188.47,159.03,185.72,158.73,183.98,159.57z M178.39,145.67c1.38,1.32,2.3-0.4,4.28,0
	c-0.26,1.98,0.98,2.36,2.79,2.14c0.81-5.38-3.39-6.07-6.66-4.28C178.98,144.54,178.27,144.71,178.39,145.67z M176.64,143
	c-1.24-2.84-0.79-7.47-3.69-8.56c-1.21,2.09,0.83,4.13-0.18,6.42C173.84,141.81,173.96,143.75,176.64,143z M159.62,154.22
	c-0.73-0.17-1.07-0.76-2.17-0.54c0.03,0.54,0.06,1.07,0.09,1.61C158.77,155.44,159.54,155.16,159.62,154.22z M135.77,167.59
	c0.14,1.36,0.9,2.07,2.26,2.14C138.19,168.05,137.43,167.34,135.77,167.59z"/>
</svg>
